<svg xmlns="http://www.w3.org/2000/svg" viewBox="0 0 16 16" shape-rendering="crispEdges">
  <title>13h.dev</title>
  <rect x="7" y="11" width="2" height="2" fill="#555555"/>
  <rect x="4" y="13" width="8" height="2" fill="#aaaaaa"/>
  <rect x="4" y="13" width="8" height="1" fill="#dddddd"/>
  <rect x="1" y="1" width="14" height="11" fill="#aaaaaa"/>
  <rect x="1" y="1" width="14" height="1" fill="#ffffff"/>
  <rect x="1" y="11" width="14" height="1" fill="#555555"/>
  <rect x="2" y="2" width="12" height="9" fill="#000000"/>
  <rect x="3" y="3" width="1" height="1" fill="#000000"/>
  <rect x="4" y="3" width="1" height="1" fill="#0000aa"/>
  <rect x="5" y="3" width="1" height="1" fill="#00aa00"/>
  <rect x="6" y="3" width="1" height="1" fill="#00aaaa"/>
  <rect x="7" y="3" width="1" height="1" fill="#aa0000"/>
  <rect x="8" y="3" width="1" height="1" fill="#aa00aa"/>
  <rect x="9" y="3" width="1" height="1" fill="#aa5500"/>
  <rect x="10" y="3" width="1" height="1" fill="#aaaaaa"/>
  <rect x="11" y="3" width="1" height="1" fill="#000000"/>
  <rect x="12" y="3" width="1" height="1" fill="#0000aa"/>
  <rect x="3" y="4" width="1" height="1" fill="#0000aa"/>
  <rect x="4" y="4" width="1" height="1" fill="#000000"/>
  <rect x="5" y="4" width="1" height="1" fill="#00aaaa"/>
  <rect x="6" y="4" width="1" height="1" fill="#00aa00"/>
  <rect x="7" y="4" width="1" height="1" fill="#aa00aa"/>
  <rect x="8" y="4" width="1" height="1" fill="#aa0000"/>
  <rect x="9" y="4" width="1" height="1" fill="#aaaaaa"/>
  <rect x="10" y="4" width="1" height="1" fill="#aa5500"/>
  <rect x="11" y="4" width="1" height="1" fill="#0000aa"/>
  <rect x="12" y="4" width="1" height="1" fill="#000000"/>
  <rect x="3" y="5" width="1" height="1" fill="#00aa00"/>
  <rect x="4" y="5" width="1" height="1" fill="#00aaaa"/>
  <rect x="5" y="5" width="1" height="1" fill="#000000"/>
  <rect x="6" y="5" width="1" height="1" fill="#0000aa"/>
  <rect x="7" y="5" width="1" height="1" fill="#aa5500"/>
  <rect x="8" y="5" width="1" height="1" fill="#aaaaaa"/>
  <rect x="9" y="5" width="1" height="1" fill="#aa0000"/>
  <rect x="10" y="5" width="1" height="1" fill="#aa00aa"/>
  <rect x="11" y="5" width="1" height="1" fill="#00aa00"/>
  <rect x="12" y="5" width="1" height="1" fill="#00aaaa"/>
  <rect x="3" y="6" width="1" height="1" fill="#00aaaa"/>
  <rect x="4" y="6" width="1" height="1" fill="#00aa00"/>
  <rect x="5" y="6" width="1" height="1" fill="#0000aa"/>
  <rect x="6" y="6" width="1" height="1" fill="#000000"/>
  <rect x="7" y="6" width="1" height="1" fill="#aaaaaa"/>
  <rect x="8" y="6" width="1" height="1" fill="#aa5500"/>
  <rect x="9" y="6" width="1" height="1" fill="#aa00aa"/>
  <rect x="10" y="6" width="1" height="1" fill="#aa0000"/>
  <rect x="11" y="6" width="1" height="1" fill="#00aaaa"/>
  <rect x="12" y="6" width="1" height="1" fill="#00aa00"/>
  <rect x="3" y="7" width="1" height="1" fill="#aa0000"/>
  <rect x="4" y="7" width="1" height="1" fill="#aa00aa"/>
  <rect x="5" y="7" width="1" height="1" fill="#aa5500"/>
  <rect x="6" y="7" width="1" height="1" fill="#aaaaaa"/>
  <rect x="7" y="7" width="1" height="1" fill="#000000"/>
  <rect x="8" y="7" width="1" height="1" fill="#0000aa"/>
  <rect x="9" y="7" width="1" height="1" fill="#00aa00"/>
  <rect x="10" y="7" width="1" height="1" fill="#00aaaa"/>
  <rect x="11" y="7" width="1" height="1" fill="#aa0000"/>
  <rect x="12" y="7" width="1" height="1" fill="#aa00aa"/>
  <rect x="3" y="8" width="1" height="1" fill="#aa00aa"/>
  <rect x="4" y="8" width="1" height="1" fill="#aa0000"/>
  <rect x="5" y="8" width="1" height="1" fill="#aaaaaa"/>
  <rect x="6" y="8" width="1" height="1" fill="#aa5500"/>
  <rect x="7" y="8" width="1" height="1" fill="#0000aa"/>
  <rect x="8" y="8" width="1" height="1" fill="#000000"/>
  <rect x="9" y="8" width="1" height="1" fill="#00aaaa"/>
  <rect x="10" y="8" width="1" height="1" fill="#00aa00"/>
  <rect x="11" y="8" width="1" height="1" fill="#aa00aa"/>
  <rect x="12" y="8" width="1" height="1" fill="#aa0000"/>
  <rect x="3" y="9" width="1" height="1" fill="#aa5500"/>
  <rect x="4" y="9" width="1" height="1" fill="#aaaaaa"/>
  <rect x="5" y="9" width="1" height="1" fill="#aa0000"/>
  <rect x="6" y="9" width="1" height="1" fill="#aa00aa"/>
  <rect x="7" y="9" width="1" height="1" fill="#00aa00"/>
  <rect x="8" y="9" width="1" height="1" fill="#00aaaa"/>
  <rect x="9" y="9" width="1" height="1" fill="#000000"/>
  <rect x="10" y="9" width="1" height="1" fill="#0000aa"/>
  <rect x="11" y="9" width="1" height="1" fill="#aa5500"/>
  <rect x="12" y="9" width="1" height="1" fill="#aaaaaa"/>
</svg>
